# xmcd CD database file
#
# Track frame offsets:
#	150
#	41397
#	97306
#	127116
#	162672
#	197455
#
# Disc length: 3033 seconds
#
# Revision: 5
# Processed by: cddbd v1.5.2PL0 Copyright (c) Steve Scherf et al.
# Submitted via: CDex 1.40Release
#
DISCID=520bd706
DTITLE=Jarrett, Keith - Peacock, Gary and DeJohnette, Jack - My Foolish Heart - Live at Montreux - CD 1
DYEAR=2007
DGENRE=Jazz
TTITLE0=Four
TTITLE1=My Foolish Heart
TTITLE2=Oleo
TTITLE3=What's New
TTITLE4=The Song Is You
TTITLE5=Ain't Misbehavin'
EXTD=YEAR: 2007 ID3G: 8
EXTT0=
EXTT1=
EXTT2=
EXTT3=
EXTT4=
EXTT5=
PLAYORDER=
